<svg width="18" height="19" viewBox="0 0 18 19" fill="none" xmlns="http://www.w3.org/2000/svg">
<path d="M16.9111 8.42079H4.07788C4.03992 8.42043 4.00295 8.4086 3.97184 8.38684C3.94072 8.36509 3.91691 8.33444 3.90353 8.29892C3.89014 8.26339 3.88781 8.22465 3.89685 8.18777C3.90588 8.1509 3.92585 8.11762 3.95413 8.09229L10.4319 2.39229C10.6355 2.20029 10.7567 1.93672 10.7698 1.65714C10.7829 1.37756 10.687 1.1038 10.5022 0.893555C10.3175 0.683314 10.0583 0.553013 9.77936 0.530113C9.50041 0.507212 9.22346 0.593501 9.00688 0.770795L0.621131 8.15004C0.429599 8.31896 0.276202 8.5267 0.171131 8.75946C0.0660593 8.99222 0.0117188 9.24467 0.0117188 9.50004C0.0117188 9.75542 0.0660593 10.0079 0.171131 10.2406C0.276202 10.4734 0.429599 10.6811 0.621131 10.85L9.00538 18.2278C9.22213 18.4029 9.49815 18.4874 9.77577 18.4637C10.0534 18.44 10.3111 18.31 10.4951 18.1007C10.6791 17.8915 10.775 17.6193 10.763 17.3409C10.7509 17.0625 10.6318 16.7996 10.4304 16.607L3.95263 10.907C3.92435 10.8817 3.90438 10.8484 3.89535 10.8116C3.88632 10.7747 3.88864 10.7359 3.90203 10.7004C3.91541 10.6649 3.93922 10.6342 3.97034 10.6125C4.00145 10.5907 4.03842 10.5789 4.07638 10.5785H16.9111C17.1925 10.5711 17.4599 10.4541 17.6563 10.2525C17.8528 10.0508 17.9627 9.78043 17.9627 9.49892C17.9627 9.21741 17.8528 8.94703 17.6563 8.74537C17.4599 8.54371 17.1925 8.42671 16.9111 8.41929V8.42079Z" fill="black"/>
</svg>
