<svg width="16" height="17" viewBox="0 0 16 17" fill="none" xmlns="http://www.w3.org/2000/svg">
<g clip-path="url(#clip0_1_12)">
<path d="M12.9667 5.5H3.03333C2.98722 5.49985 2.94158 5.50927 2.8993 5.52767C2.85702 5.54606 2.81901 5.57303 2.78768 5.60686C2.75635 5.6407 2.73238 5.68066 2.71729 5.72424C2.7022 5.76781 2.69631 5.81404 2.7 5.86L3.55333 15.2867C3.58337 15.6191 3.737 15.9282 3.98387 16.1528C4.23074 16.3775 4.55289 16.5014 4.88667 16.5H11.1133C11.4471 16.5014 11.7693 16.3775 12.0161 16.1528C12.263 15.9282 12.4166 15.6191 12.4467 15.2867L13.3333 5.83333C13.337 5.78737 13.3311 5.74114 13.316 5.69757C13.301 5.654 13.277 5.61403 13.2457 5.5802C13.2143 5.54636 13.1763 5.51939 13.134 5.501C13.0918 5.48261 13.0461 5.47319 13 5.47333L12.9667 5.5ZM6.83333 14.1667C6.83333 14.2993 6.78066 14.4265 6.68689 14.5202C6.59312 14.614 6.46594 14.6667 6.33333 14.6667C6.20073 14.6667 6.07355 14.614 5.97978 14.5202C5.88601 14.4265 5.83333 14.2993 5.83333 14.1667V8.16667C5.83333 8.03406 5.88601 7.90688 5.97978 7.81311C6.07355 7.71935 6.20073 7.66667 6.33333 7.66667C6.46594 7.66667 6.59312 7.71935 6.68689 7.81311C6.78066 7.90688 6.83333 8.03406 6.83333 8.16667V14.1667ZM10.1667 14.1667C10.1667 14.2993 10.114 14.4265 10.0202 14.5202C9.92645 14.614 9.79928 14.6667 9.66667 14.6667C9.53406 14.6667 9.40688 14.614 9.31312 14.5202C9.21935 14.4265 9.16667 14.2993 9.16667 14.1667V8.16667C9.16667 8.03406 9.21935 7.90688 9.31312 7.81311C9.40688 7.71935 9.53406 7.66667 9.66667 7.66667C9.79928 7.66667 9.92645 7.71935 10.0202 7.81311C10.114 7.90688 10.1667 8.03406 10.1667 8.16667V14.1667Z" fill="currentColor"/>
<path d="M14.6667 3.16667H11.5C11.4558 3.16667 11.4134 3.14911 11.3822 3.11785C11.3509 3.0866 11.3333 3.0442 11.3333 3V2.16667C11.3333 1.72464 11.1577 1.30072 10.8452 0.988155C10.5326 0.675595 10.1087 0.5 9.66667 0.5L6.33334 0.5C5.89131 0.5 5.46738 0.675595 5.15482 0.988155C4.84226 1.30072 4.66667 1.72464 4.66667 2.16667V3C4.66667 3.0442 4.64911 3.0866 4.61785 3.11785C4.5866 3.14911 4.5442 3.16667 4.5 3.16667H1.33333C1.15652 3.16667 0.986954 3.2369 0.86193 3.36193C0.736906 3.48695 0.666668 3.65652 0.666668 3.83333C0.666668 4.01014 0.736906 4.17971 0.86193 4.30474C0.986954 4.42976 1.15652 4.5 1.33333 4.5H14.6667C14.8435 4.5 15.0131 4.42976 15.1381 4.30474C15.2631 4.17971 15.3333 4.01014 15.3333 3.83333C15.3333 3.65652 15.2631 3.48695 15.1381 3.36193C15.0131 3.2369 14.8435 3.16667 14.6667 3.16667V3.16667ZM6 3V2.16667C6 2.07826 6.03512 1.99348 6.09763 1.93096C6.16015 1.86845 6.24493 1.83333 6.33334 1.83333H9.66667C9.75508 1.83333 9.83986 1.86845 9.90237 1.93096C9.96488 1.99348 10 2.07826 10 2.16667V3C10 3.0442 9.98244 3.0866 9.95119 3.11785C9.91993 3.14911 9.87754 3.16667 9.83334 3.16667H6.16667C6.12247 3.16667 6.08007 3.14911 6.04882 3.11785C6.01756 3.0866 6 3.0442 6 3Z" fill="currentColor"/>
</g>
<defs>
<clipPath id="clip0_1_12">
<rect width="16" height="16" fill="currentColor" transform="translate(0 0.5)"/>
</clipPath>
</defs>
</svg>
