<svg width="14" height="9" viewBox="0 0 14 9" fill="none" xmlns="http://www.w3.org/2000/svg">
<path d="M6.88645 8.79995C6.48426 8.79995 6.13953 8.62759 5.90971 8.34031L0.221614 1.96275C-0.123119 1.50311 -0.0656634 0.81364 0.39398 0.468908C0.853624 0.124175 1.48563 0.124175 1.83037 0.583818L6.77154 6.21446C6.82899 6.27191 6.88645 6.27191 7.00136 6.21446L11.9425 0.583818C12.3447 0.124175 12.9767 0.0667192 13.4364 0.468908C13.896 0.871096 13.9535 1.50311 13.5513 1.96275C13.5513 1.96275 13.5513 1.96275 13.4938 2.02021L7.86319 8.39776C7.63337 8.62758 7.23118 8.79995 6.88645 8.79995Z" fill="#004DF6"/>
</svg>
