<svg width="16" height="17" viewBox="0 0 16 17" fill="none" xmlns="http://www.w3.org/2000/svg">
<g clip-path="url(#clip0_1_5)">
<path d="M10.0467 3.16667C10.0156 3.13446 9.97832 3.10896 9.93704 3.09176C9.89576 3.07456 9.85138 3.06602 9.80666 3.06667V3.06667C9.71969 3.06615 9.63595 3.09964 9.57333 3.16L2.29333 10.44C2.26209 10.471 2.23729 10.5079 2.22037 10.5485C2.20345 10.5891 2.19473 10.6327 2.19473 10.6767C2.19473 10.7207 2.20345 10.7642 2.22037 10.8049C2.23729 10.8455 2.26209 10.8823 2.29333 10.9133L5.58666 14.2067C5.65026 14.2705 5.73658 14.3064 5.82666 14.3067C5.87026 14.3064 5.91337 14.2974 5.95344 14.2803C5.99352 14.2631 6.02975 14.2381 6.06 14.2067L13.3333 6.93333C13.3948 6.8699 13.4292 6.78502 13.4292 6.69667C13.4292 6.60832 13.3948 6.52343 13.3333 6.46L10.0467 3.16667Z" fill="currentColor"/>
<path d="M1.62 11.7C1.57713 11.6601 1.52466 11.6319 1.46768 11.6182C1.4107 11.6045 1.35115 11.6057 1.29481 11.6218C1.23846 11.6379 1.18724 11.6683 1.14609 11.71C1.10495 11.7518 1.0753 11.8034 1.06 11.86L0.0533342 16.04C0.0399938 16.0958 0.0415968 16.1542 0.0579818 16.2092C0.0743668 16.2642 0.104955 16.3139 0.146668 16.3533C0.186844 16.394 0.236615 16.4238 0.29138 16.4401C0.346145 16.4564 0.404138 16.4587 0.460001 16.4467L4.66667 15.44C4.724 15.4264 4.77657 15.3975 4.81883 15.3564C4.86108 15.3153 4.89143 15.2636 4.90667 15.2067C4.92215 15.1499 4.92293 15.0901 4.90894 15.033C4.89494 14.9758 4.86663 14.9232 4.82667 14.88L1.62 11.7Z" fill="currentColor"/>
<path d="M15.4667 2.44667L14.0533 1.03333C13.7389 0.723101 13.315 0.54916 12.8733 0.54916C12.4316 0.54916 12.0077 0.723101 11.6933 1.03333L10.7533 1.98C10.7214 2.00993 10.696 2.04607 10.6787 2.0862C10.6613 2.12634 10.6523 2.1696 10.6523 2.21333C10.6523 2.25706 10.6613 2.30033 10.6787 2.34046C10.696 2.3806 10.7214 2.41674 10.7533 2.44667L14.0533 5.78C14.0833 5.81189 14.1194 5.8373 14.1595 5.85467C14.1997 5.87205 14.2429 5.88101 14.2867 5.88101C14.3304 5.88101 14.3737 5.87205 14.4138 5.85467C14.4539 5.8373 14.4901 5.81189 14.52 5.78L15.4667 4.8C15.7781 4.48759 15.953 4.06446 15.953 3.62333C15.953 3.18221 15.7781 2.75908 15.4667 2.44667V2.44667Z" fill="currentColor"/>
</g>
<defs>
<clipPath id="clip0_1_5">
<rect width="16" height="16" fill="currentColor" transform="translate(0 0.5)"/>
</clipPath>
</defs>
</svg>
