<svg width="62" height="15" viewBox="0 0 62 15" fill="none" xmlns="http://www.w3.org/2000/svg">
<path fill-rule="evenodd" clip-rule="evenodd" d="M28.2304 10.6421L23.2193 0L16.1406 14.4376H26.3695H30.0176H40.2464L33.4481 0L28.2304 10.6421Z" fill="#FE7A48"/>
<path fill-rule="evenodd" clip-rule="evenodd" d="M50.7648 0.982422H40.252V9.7431C40.252 12.6461 42.6053 14.9995 45.5084 14.9995C48.4114 14.9995 50.7648 12.6461 50.7648 9.7431V0.982422ZM61.2793 0.982422H50.7664V9.7431C50.7664 12.6461 53.1198 14.9995 56.0229 14.9995C58.9259 14.9995 61.2793 12.6461 61.2793 9.7431V0.982422Z" fill="#044FF5"/>
<path fill-rule="evenodd" clip-rule="evenodd" d="M0.72168 1.11987H6.74903V4.48188H9.13035V1.11987H15.1577V14.4361H9.13035V11.0699H6.74903V14.4361H0.72168V1.11987Z" fill="#FECD48"/>
</svg>
